<svg width="203" height="35" viewBox="0 0 203 35" fill="none" xmlns="http://www.w3.org/2000/svg">
<path d="M23.244 2.79999V28H17.412V17.668H5.96402V28H0.132019V2.79999H5.96402V12.736H17.412V2.79999H23.244Z" fill="white"/>
<path d="M38.7738 23.788C39.7818 23.788 40.6698 23.644 41.4378 23.356C42.2298 23.044 42.9618 22.564 43.6338 21.916L46.6218 25.156C44.7978 27.244 42.1338 28.288 38.6298 28.288C36.4458 28.288 34.5138 27.868 32.8338 27.028C31.1538 26.164 29.8578 24.976 28.9458 23.464C28.0338 21.952 27.5778 20.236 27.5778 18.316C27.5778 16.42 28.0218 14.716 28.9098 13.204C29.8218 11.668 31.0578 10.48 32.6178 9.63999C34.2018 8.77599 35.9778 8.34399 37.9458 8.34399C39.7938 8.34399 41.4738 8.73999 42.9858 9.53199C44.4978 10.3 45.6978 11.428 46.5858 12.916C47.4978 14.38 47.9538 16.12 47.9538 18.136L33.6258 20.908C34.0338 21.868 34.6698 22.588 35.5338 23.068C36.4218 23.548 37.5018 23.788 38.7738 23.788ZM37.9458 12.592C36.5298 12.592 35.3778 13.048 34.4898 13.96C33.6018 14.872 33.1338 16.132 33.0858 17.74L42.5178 15.904C42.2538 14.896 41.7138 14.092 40.8978 13.492C40.0818 12.892 39.0978 12.592 37.9458 12.592Z" fill="white"/>
<path d="M70.9527 8.63199V28H65.5887V25.732C64.8687 26.572 63.9807 27.208 62.9247 27.64C61.8927 28.072 60.7887 28.288 59.6127 28.288C57.0687 28.288 55.0407 27.556 53.5287 26.092C52.0407 24.628 51.2967 22.456 51.2967 19.576V8.63199H56.9127V18.748C56.9127 21.868 58.2207 23.428 60.8367 23.428C62.2047 23.428 63.2967 22.996 64.1127 22.132C64.9287 21.244 65.3367 19.936 65.3367 18.208V8.63199H70.9527ZM60.9807 6.54399C56.7567 6.54399 54.6327 4.68399 54.6087 0.963989H58.2807C58.3047 1.80399 58.5327 2.46399 58.9647 2.94399C59.4207 3.39999 60.0807 3.62799 60.9447 3.62799C61.8087 3.62799 62.4687 3.39999 62.9247 2.94399C63.4047 2.46399 63.6447 1.80399 63.6447 0.963989H67.3887C67.3647 4.68399 65.2287 6.54399 60.9807 6.54399Z" fill="white"/>
<path d="M86.2415 8.34399C88.3055 8.34399 90.1055 8.75199 91.6415 9.56799C93.1775 10.384 94.3655 11.548 95.2055 13.06C96.0455 14.572 96.4655 16.336 96.4655 18.352C96.4655 20.32 96.0695 22.06 95.2775 23.572C94.4855 25.06 93.3695 26.224 91.9295 27.064C90.4895 27.88 88.8335 28.288 86.9615 28.288C84.4895 28.288 82.5575 27.508 81.1655 25.948V34.984H75.5495V18.388C75.5495 16.396 75.9935 14.644 76.8815 13.132C77.7695 11.62 79.0175 10.444 80.6255 9.60399C82.2335 8.76399 84.1055 8.34399 86.2415 8.34399ZM85.9895 23.68C87.4535 23.68 88.6415 23.188 89.5535 22.204C90.4655 21.22 90.9215 19.936 90.9215 18.352C90.9215 16.744 90.4655 15.448 89.5535 14.464C88.6415 13.456 87.4535 12.952 85.9895 12.952C84.5255 12.952 83.3375 13.444 82.4255 14.428C81.5375 15.412 81.0935 16.708 81.0935 18.316C81.0935 19.924 81.5375 21.22 82.4255 22.204C83.3135 23.188 84.5015 23.68 85.9895 23.68Z" fill="white"/>
<path d="M109.495 28.288C107.455 28.288 105.619 27.868 103.987 27.028C102.379 26.164 101.119 24.976 100.207 23.464C99.2947 21.952 98.8387 20.236 98.8387 18.316C98.8387 16.396 99.2947 14.68 100.207 13.168C101.119 11.656 102.379 10.48 103.987 9.63999C105.619 8.77599 107.455 8.34399 109.495 8.34399C111.535 8.34399 113.359 8.77599 114.967 9.63999C116.575 10.48 117.835 11.656 118.747 13.168C119.659 14.68 120.115 16.396 120.115 18.316C120.115 20.236 119.659 21.952 118.747 23.464C117.835 24.976 116.575 26.164 114.967 27.028C113.359 27.868 111.535 28.288 109.495 28.288ZM109.495 23.68C110.935 23.68 112.111 23.2 113.023 22.24C113.959 21.256 114.427 19.948 114.427 18.316C114.427 16.684 113.959 15.388 113.023 14.428C112.111 13.444 110.935 12.952 109.495 12.952C108.055 12.952 106.867 13.444 105.931 14.428C104.995 15.388 104.527 16.684 104.527 18.316C104.527 19.948 104.995 21.256 105.931 22.24C106.867 23.2 108.055 23.68 109.495 23.68Z" fill="white"/>
<path d="M155.305 2.79999V28H149.545V18.928C147.361 19.72 145.333 20.116 143.461 20.116C140.077 20.116 137.485 19.312 135.685 17.704C133.885 16.072 132.985 13.732 132.985 10.684V2.79999H138.745V10.036C138.745 11.764 139.201 13.072 140.113 13.96C141.049 14.824 142.393 15.256 144.145 15.256C146.065 15.256 147.865 14.884 149.545 14.14V2.79999H155.305Z" fill="white"/>
<path d="M170.786 23.788C171.794 23.788 172.682 23.644 173.45 23.356C174.242 23.044 174.974 22.564 175.646 21.916L178.634 25.156C176.81 27.244 174.146 28.288 170.642 28.288C168.458 28.288 166.526 27.868 164.846 27.028C163.166 26.164 161.87 24.976 160.958 23.464C160.046 21.952 159.59 20.236 159.59 18.316C159.59 16.42 160.034 14.716 160.922 13.204C161.834 11.668 163.07 10.48 164.63 9.63999C166.214 8.77599 167.99 8.34399 169.958 8.34399C171.806 8.34399 173.486 8.73999 174.998 9.53199C176.51 10.3 177.71 11.428 178.598 12.916C179.51 14.38 179.966 16.12 179.966 18.136L165.638 20.908C166.046 21.868 166.682 22.588 167.546 23.068C168.434 23.548 169.514 23.788 170.786 23.788ZM169.958 12.592C168.542 12.592 167.39 13.048 166.502 13.96C165.614 14.872 165.146 16.132 165.098 17.74L174.53 15.904C174.266 14.896 173.726 14.092 172.91 13.492C172.094 12.892 171.11 12.592 169.958 12.592Z" fill="white"/>
<path d="M202.249 8.63199V28H196.633V13.24H190.513L190.333 16.66C190.237 19.204 189.997 21.316 189.613 22.996C189.229 24.676 188.605 25.996 187.741 26.956C186.877 27.916 185.677 28.396 184.141 28.396C183.325 28.396 182.353 28.252 181.225 27.964L181.513 23.356C181.897 23.404 182.173 23.428 182.341 23.428C183.181 23.428 183.805 23.128 184.213 22.528C184.645 21.904 184.933 21.124 185.077 20.188C185.221 19.228 185.329 17.968 185.401 16.408L185.689 8.63199H202.249Z" fill="white"/>
</svg>
